# xmcd CD database file
# Copyright (C) 1993-1998 Ti Kan
#
# Track frame offsets:
#	150
#	15162
#	29762
#	49597
#	67675
#	86880
#	102597
#	114752
#	131067
#	145962
#	163417
#
# Disc length: 2411 seconds
#
# Revision: 0
# Processed by: cddbd v1.4b41PL1 Copyright (c) Steve Scherf et al.
# Submitted via: CDmax 1.5
#
DISCID=9209690b
DTITLE=Celeste Krenz - Slow Burning Flame
DYEAR=1900
DGENRE=
TTITLE0=Slow Burning Flame
TTITLE1=This Love I Have For You
TTITLE2=Old Habits
TTITLE3=Highway, Highway
TTITLE4=Outside My Window
TTITLE5=True Love
TTITLE6=Jolene
TTITLE7=Come on Home (Cowboy Song)
TTITLE8=I'm Gonna Break Your Heart
TTITLE9=Fallen Angel
TTITLE10=Romance is a Slow Danve
EXTD=
EXTT0=
EXTT1=
EXTT2=
EXTT3=
EXTT4=
EXTT5=
EXTT6=
EXTT7=
EXTT8=
EXTT9=
EXTT10=
PLAYORDER=
